:FULLY-SPECIFIED
:FORCE-ALL-JOINTS-BE-3DOF
:DEGREES
713
root 5.52025 21.4223 7.37156 -97.4833 -85.5244 113.81
lfemur -34.9598 -12.1694 10.0352
ltibia 72.6622 0 0
lfoot 6.33069 -8.28002 0
ltoes 30.6602 0 0
rfemur -31.4607 -1.44453 -0.436386
rtibia 84.6734 0 0
rfoot 20.1303 -19.3229 0
rtoes 38.5106 0 0
lowerback 5.9873 -0.760803 -1.81888
upperback -1.30321 -1.24541 -1.62125
thorax -4.70843 -0.596332 -0.533836
lowerneck -6.84494 -6.17817 -2.18136
upperneck -0.135701 -8.21979 4.84882
head 1.43398 -4.04405 1.60753
lclavicle 5.59437e-15 2.22638e-14 0
lhumerus 1.52924 -20.3284 15.5405
lradius 47.0403 0 0
lwrist 23.9781 0 0
lhand -21.7041 -3.15841 0
lfingers 7.12502 0 0
lthumb 4.69443 26.7681 0
rclavicle 5.59437e-15 2.22638e-14 0
rhumerus -12.4568 -3.54489 -25.8179
rradius 99.3617 0 0
rwrist -9.60071 0 0
rhand -28.389 -35.6326 0
rfingers 7.12502 0 0
rthumb -1.76141 -785.587 0
714
root 5.50561 21.4759 7.58379 -119.044 -86.3673 135.425
lfemur -34.2584 -13.3295 9.27746
ltibia 68.8931 0 0
lfoot 6.88254 -8.86109 0
ltoes 30.247 0 0
rfemur -32.6478 -1.51569 -1.1776
rtibia 90.8428 0 0
rfoot 20.7469 -19.9931 0
rtoes 40.7207 0 0
lowerback 5.99194 -0.657103 -1.79695
upperback -1.3135 -1.10429 -1.59449
thorax -4.72196 -0.526407 -0.532211
lowerneck -6.86372 -6.31497 -2.3072
upperneck -0.284739 -8.38949 4.8743
head 1.4023 -4.13127 1.63138
lclavicle 9.25769e-15 2.70347e-14 0
lhumerus -0.120847 -20.2845 16.0818
lradius 45.8462 0 0
lwrist 23.2582 0 0
lhand -21.9616 -3.25624 0
lfingers 7.12502 0 0
lthumb 4.4458 26.6762 0
rclavicle 9.25769e-15 2.70347e-14 0
rhumerus -11.656 -2.69436 -26.6868
rradius 99.309 0 0
rwrist -9.73524 0 0
rhand -27.4719 -34.7739 0
rfingers 7.12502 0 0
rthumb -0.875698 -784.741 0
715
root 5.49097 21.5295 7.79601 -140.605 -87.2103 157.04
lfemur -33.5571 -14.4896 8.51967
ltibia 65.1241 0 0
lfoot 7.43438 -9.44215 0
ltoes 29.8338 0 0
rfemur -33.8349 -1.58686 -1.91882
rtibia 97.0122 0 0
rfoot 21.3635 -20.6634 0
rtoes 42.9309 0 0
lowerback 5.99658 -0.553404 -1.77502
upperback -1.3238 -0.963173 -1.56773
thorax -4.7355 -0.456483 -0.530585
lowerneck -6.88249 -6.45178 -2.43303
upperneck -0.433777 -8.5592 4.89979
head 1.37063 -4.21848 1.65523
lclavicle 1.2921e-14 3.18055e-14 0
lhumerus -1.77093 -20.2407 16.623
lradius 44.6521 0 0
lwrist 22.5382 0 0
lhand -22.2191 -3.35407 0
lfingers 7.12502 0 0
lthumb 4.19717 26.5843 0
rclavicle 1.2921e-14 3.18055e-14 0
rhumerus -10.8552 -1.84384 -27.5558
rradius 99.2563 0 0
rwrist -9.86977 0 0
rhand -26.5547 -33.9151 0
rfingers 7.12502 0 0
rthumb 0.0100137 -783.895 0
716
root 5.45921 21.4697 8.01284 -143.556 -85.3201 160.313
lfemur -32.8891 -15.2238 8.02826
ltibia 61.3588 0 0
lfoot 7.83581 -10.8804 0
ltoes 29.3249 0 0
rfemur -33.8191 -2.90238 -2.94123
rtibia 101.294 0 0
rfoot 21.8596 -20.4474 0
rtoes 43.5328 0 0
lowerback 5.67575 -0.278483 -1.64034
upperback -1.42364 -0.580677 -1.55231
thorax -4.65459 -0.270136 -0.621111
lowerneck -6.96746 -6.57547 -2.53559
upperneck -0.605762 -8.71193 4.8552
head 1.33843 -4.2979 1.65173
lclavicle 1.55336e-14 2.51036e-14 0
lhumerus -3.81315 -20.2403 17.2413
lradius 44.616 0 0
lwrist 22.6 0 0
lhand -22.4469 -3.43218 0
lfingers 7.12502 0 0
lthumb 3.97714 26.5097 0
rclavicle 1.55336e-14 2.51036e-14 0
rhumerus -9.70415 -1.33631 -27.6682
rradius 99.3178 0 0
rwrist -10.0409 0 0
rhand -26.1544 -33.2381 0
rfingers 7.12502 0 0
rthumb 0.396595 -783.216 0
717
root 5.42744 21.41 8.22967 -146.508 -83.43 163.586
lfemur -32.2211 -15.9579 7.53685
ltibia 57.5935 0 0
lfoot 8.23724 -12.3186 0
ltoes 28.8161 0 0
rfemur -33.8032 -4.2179 -3.96365
rtibia 105.577 0 0
rfoot 22.3556 -20.2314 0
rtoes 44.1347 0 0
lowerback 5.35492 -0.00356286 -1.50567
upperback -1.52349 -0.198181 -1.53688
thorax -4.57369 -0.0837881 -0.711638
lowerneck -7.05242 -6.69915 -2.63816
upperneck -0.777746 -8.86465 4.81061
head 1.30623 -4.37733 1.64823
lclavicle 1.81462e-14 1.84018e-14 0
lhumerus -5.85538 -20.2398 17.8595
lradius 44.5799 0 0
lwrist 22.6617 0 0
lhand -22.6748 -3.51028 0
lfingers 7.12502 0 0
lthumb 3.75712 26.4352 0
rclavicle 1.81462e-14 1.84018e-14 0
rhumerus -8.55311 -0.828771 -27.7806
rradius 99.3793 0 0
rwrist -10.2121 0 0
rhand -25.7542 -32.5612 0
rfingers 7.12502 0 0
rthumb 0.783175 -782.536 0
718
root 5.39568 21.3502 8.4465 -149.459 -81.5398 166.859
lfemur -31.5531 -16.6921 7.04544
ltibia 53.8282 0 0
lfoot 8.63867 -13.7569 0
ltoes 28.3072 0 0
rfemur -33.7874 -5.53342 -4.98606
rtibia 109.859 0 0
rfoot 22.8517 -20.0154 0
rtoes 44.7366 0 0
lowerback 5.03409 0.271358 -1.37099
upperback -1.62333 0.184315 -1.52146
thorax -4.49278 0.102559 -0.802164
lowerneck -7.13739 -6.82284 -2.74072
upperneck -0.949731 -9.01738 4.76602
head 1.27403 -4.45675 1.64473
lclavicle 2.07588e-14 1.16999e-14 0
lhumerus -7.8976 -20.2394 18.4778
lradius 44.5438 0 0
lwrist 22.7235 0 0
lhand -22.9026 -3.58839 0
lfingers 7.12502 0 0
lthumb 3.53709 26.3606 0
rclavicle 2.07588e-14 1.16999e-14 0
rhumerus -7.40206 -0.321237 -27.893
rradius 99.4408 0 0
rwrist -10.3833 0 0
rhand -25.3539 -31.8842 0
rfingers 7.12502 0 0
rthumb 1.16976 -781.857 0
